<svg xmlns="http://www.w3.org/2000/svg" width="98" height="98" viewBox="0 0 98 98"><g><g><g><path fill="#b1b1b1" d="M52 98c25.405 0 46-20.595 46-46S77.405 6 52 6 6 26.595 6 52s20.595 46 46 46z"/></g><g><g><path fill="#ececec" d="M46.592 90.924c24.235 0 43.881-19.667 43.881-43.927 0-24.26-19.646-43.927-43.881-43.927C22.356 3.07 2.71 22.737 2.71 46.997c0 24.26 19.646 43.927 43.882 43.927z"/></g><g><path d="M88.213 46.997c0 22.957-18.69 41.666-41.624 41.666S4.965 69.954 4.965 46.997c0-22.958 18.69-41.667 41.624-41.667s41.624 18.71 41.624 41.667zm4.515 0C92.728 21.508 72.05.81 46.588.81 21.128.81.45 21.508.45 46.997c0 25.488 20.677 46.186 46.139 46.186 25.462 0 46.139-20.788 46.139-46.186z"/></g></g><g><path d="M68 47c0 22.234-9.9 41-21.5 41S25 69.234 25 47 34.8 6 46.5 6 68 24.766 68 47zm5-.5C73 20.945 61.4 1 46.5 1S20 20.945 20 46.5 31.6 92 46.5 92 73 71.966 73 46.5z"/></g><g><path d="M44 3h5v90h-5z"/></g><g><path d="M2 44h89v5H2z"/></g><g><path d="M7 23h79v5H7z"/></g><g><path d="M8 65h77v5H8z"/></g></g></g></svg>