<svg xmlns="http://www.w3.org/2000/svg" width="87" height="84" viewBox="0 0 87 84"><g><g><g><g><path fill="#b1b1b1" d="M5 5h82v79H5z"/></g><g><path fill="#ececec" d="M5 5h72v69H5z"/></g><g><path d="M5 5h72v69H5zm77-5H0v79h82z"/></g></g><g><path d="M5 23h77v5H5z"/></g><g><path d="M13 17a3 3 0 1 0 0-6 3 3 0 0 0 0 6z"/></g><g><path d="M23 17a3 3 0 1 0 0-6 3 3 0 0 0 0 6z"/></g><g><path d="M33 17a3 3 0 1 0 0-6 3 3 0 0 0 0 6z"/></g><g><g><path d="M10.9 50l9.9-5.2v-.3L11 39.3v-4.6l14 7.7V47l-14 7.7V50z"/></g><g><path d="M27 61v-4h14v4z"/></g></g></g></g></svg>